<svg width="43" height="39" viewBox="0 0 43 39" fill="none" xmlns="http://www.w3.org/2000/svg">
<path d="M32.1189 0C35.002 0 37.7755 1.14833 39.8158 3.20883C41.8583 5.265 43 8.03833 43 10.9417V28.0583C43 34.1033 38.1195 39 32.1189 39H10.879C4.87835 39 0 34.1033 0 28.0583V10.9417C0 4.89667 4.85685 0 10.879 0H32.1189ZM34.5505 11.2667C34.099 11.2428 33.669 11.3967 33.3444 11.7L23.65 19.5C22.403 20.5422 20.6164 20.5422 19.35 19.5L9.675 11.7C9.00635 11.2017 8.08185 11.2667 7.525 11.8517C6.9445 12.4367 6.88 13.3683 7.37235 14.0183L7.654 14.3L17.4365 21.9917C18.6405 22.945 20.1004 23.465 21.629 23.465C23.1534 23.465 24.639 22.945 25.8409 21.9917L35.5395 14.17L35.7115 13.9967C36.2254 13.3683 36.2254 12.4583 35.6879 11.83C35.389 11.5072 34.9784 11.31 34.5505 11.2667Z" fill="white"/>
</svg>
