<svg width="52" height="52" viewBox="0 0 52 52" fill="none" xmlns="http://www.w3.org/2000/svg">
<g filter="url(#filter0_d_39_22)">
<path d="M48 22C48 34.122 38.144 44 26 44C13.878 44 4 34.122 4 22C4 9.856 13.878 0 26 0C38.144 0 48 9.856 48 22ZM30.334 15.532C30.994 14.894 30.994 13.838 30.356 13.2C29.696 12.54 28.662 12.54 28.024 13.2L20.346 20.834C20.038 21.142 19.862 21.56 19.862 22C19.862 22.44 20.038 22.858 20.346 23.166L28.024 30.8C28.332 31.13 28.75 31.284 29.168 31.284C29.608 31.284 30.026 31.13 30.356 30.8C30.994 30.14 30.994 29.106 30.334 28.468L23.844 22L30.334 15.532Z" fill="white" fill-opacity="0.5"/>
</g>
<defs>
<filter id="filter0_d_39_22" x="0" y="0" width="52" height="52" filterUnits="userSpaceOnUse" color-interpolation-filters="sRGB">
<feFlood flood-opacity="0" result="BackgroundImageFix"/>
<feColorMatrix in="SourceAlpha" type="matrix" values="0 0 0 0 0 0 0 0 0 0 0 0 0 0 0 0 0 0 127 0" result="hardAlpha"/>
<feOffset dy="4"/>
<feGaussianBlur stdDeviation="2"/>
<feComposite in2="hardAlpha" operator="out"/>
<feColorMatrix type="matrix" values="0 0 0 0 0 0 0 0 0 0 0 0 0 0 0 0 0 0 0.25 0"/>
<feBlend mode="normal" in2="BackgroundImageFix" result="effect1_dropShadow_39_22"/>
<feBlend mode="normal" in="SourceGraphic" in2="effect1_dropShadow_39_22" result="shape"/>
</filter>
</defs>
</svg>
