<svg width="52" height="52" viewBox="0 0 52 52" fill="none" xmlns="http://www.w3.org/2000/svg">
<g filter="url(#filter0_d_39_19)">
<path d="M4 22C4 9.878 13.856 0 26 0C38.122 0 48 9.878 48 22C48 34.144 38.122 44 26 44C13.856 44 4 34.144 4 22ZM21.666 28.468C21.006 29.106 21.006 30.162 21.644 30.8C22.304 31.46 23.338 31.46 23.976 30.8L31.654 23.166C31.962 22.858 32.138 22.44 32.138 22C32.138 21.56 31.962 21.142 31.654 20.834L23.976 13.2C23.668 12.87 23.25 12.716 22.832 12.716C22.392 12.716 21.974 12.87 21.644 13.2C21.006 13.86 21.006 14.894 21.666 15.532L28.156 22L21.666 28.468Z" fill="white"/>
</g>
<defs>
<filter id="filter0_d_39_19" x="0" y="0" width="52" height="52" filterUnits="userSpaceOnUse" color-interpolation-filters="sRGB">
<feFlood flood-opacity="0" result="BackgroundImageFix"/>
<feColorMatrix in="SourceAlpha" type="matrix" values="0 0 0 0 0 0 0 0 0 0 0 0 0 0 0 0 0 0 127 0" result="hardAlpha"/>
<feOffset dy="4"/>
<feGaussianBlur stdDeviation="2"/>
<feComposite in2="hardAlpha" operator="out"/>
<feColorMatrix type="matrix" values="0 0 0 0 0 0 0 0 0 0 0 0 0 0 0 0 0 0 0.25 0"/>
<feBlend mode="normal" in2="BackgroundImageFix" result="effect1_dropShadow_39_19"/>
<feBlend mode="normal" in="SourceGraphic" in2="effect1_dropShadow_39_19" result="shape"/>
</filter>
</defs>
</svg>
