<svg width="31" height="39" viewBox="0 0 31 39" fill="none" xmlns="http://www.w3.org/2000/svg">
<path d="M15.5 0C11.3906 0.00479208 7.45097 1.62055 4.54521 4.49284C1.63945 7.36512 0.00486442 11.2594 1.64904e-05 15.3214C-0.00490531 18.6409 1.09203 21.8703 3.12256 24.5143C3.12256 24.5143 3.54529 25.0645 3.61433 25.1439L15.5 39L27.3913 25.1369C27.4533 25.0631 27.8774 24.5143 27.8774 24.5143L27.8789 24.5101C29.9084 21.8673 31.0048 18.6394 31 15.3214C30.9951 11.2594 29.3605 7.36512 26.4548 4.49284C23.549 1.62055 19.6094 0.00479208 15.5 0ZM15.5 20.8929C14.3852 20.8929 13.2955 20.5661 12.3686 19.9539C11.4417 19.3417 10.7193 18.4716 10.2927 17.4535C9.86608 16.4355 9.75446 15.3152 9.97194 14.2345C10.1894 13.1537 10.7262 12.161 11.5145 11.3818C12.3028 10.6027 13.3071 10.072 14.4004 9.85705C15.4937 9.64208 16.627 9.75241 17.6569 10.1741C18.6868 10.5958 19.5671 11.3099 20.1865 12.2261C20.8058 13.1423 21.1364 14.2195 21.1364 15.3214C21.1345 16.7985 20.5401 18.2145 19.4834 19.259C18.4268 20.3034 16.9943 20.891 15.5 20.8929Z" fill="white"/>
</svg>
